<svg width="64" height="23" viewBox="0 0 64 23" fill="none" xmlns="http://www.w3.org/2000/svg">
<path d="M49.2871 5.4762C49.2871 5.4762 54.2673 15.8873 54.4838 16.8151C54.7004 17.7429 53.5884 19.7299 51.2359 19.4952V23C55.5037 22.3321 57.3505 21.2647 58.7061 17.1244L53.5094 5.4762H49.2871Z" fill="white"/>
<path d="M60.0364 14.019C55.4294 10.1145 55.8428 5.48448 60.0365 5.47621C64.2301 5.46793 64.558 9.74099 60.0364 14.019Z" fill="#85CC16"/>
<path d="M7.40914 9.1621H5.23728L5.22487 17.4405H1.66302V9.1621H0V5.81351H1.66302V2.16263H5.22487L5.23728 5.81351H7.40914V9.1621Z" fill="white"/>
<path d="M14.3352 17.7428C13.1935 17.7428 12.151 17.4677 11.2078 16.9173C10.2728 16.367 9.52405 15.6306 8.96144 14.7082C8.40709 13.778 8.12992 12.751 8.12992 11.627C8.12992 10.7744 8.29126 9.97987 8.61394 9.24349C8.93661 8.49936 9.37926 7.84824 9.94188 7.29015C10.5128 6.7243 11.1747 6.28247 11.9276 5.96467C12.6805 5.64686 13.483 5.48796 14.3352 5.48796C15.477 5.48796 16.5154 5.76313 17.4503 6.31348C18.3935 6.86382 19.1423 7.60408 19.6966 8.53424C20.2592 9.4644 20.5405 10.4953 20.5405 11.627C20.5405 12.4719 20.3792 13.2626 20.0565 13.9989C19.7339 14.7353 19.2871 15.3864 18.7162 15.9523C18.1536 16.5104 17.4958 16.9483 16.7429 17.2661C15.9983 17.5839 15.1957 17.7428 14.3352 17.7428ZM14.3352 14.3943C14.8399 14.3943 15.2909 14.2702 15.688 14.0222C16.0851 13.7664 16.3954 13.4292 16.6188 13.0106C16.8505 12.5843 16.9663 12.1231 16.9663 11.627C16.9663 11.1154 16.8463 10.6465 16.6064 10.2202C16.3664 9.79383 16.0479 9.45665 15.6508 9.20861C15.2536 8.96056 14.8151 8.83654 14.3352 8.83654C13.8388 8.83654 13.392 8.96444 12.9949 9.22023C12.5977 9.47603 12.2833 9.81709 12.0517 10.2434C11.82 10.6697 11.7042 11.1309 11.7042 11.627C11.7042 12.1464 11.8242 12.6153 12.0641 13.0339C12.304 13.4525 12.6226 13.7858 13.0197 14.0338C13.4251 14.2741 13.8636 14.3943 14.3352 14.3943Z" fill="white"/>
<path d="M22.0608 13.1967V5.81351H25.6351V12.2781C25.6351 12.6657 25.7344 13.0184 25.933 13.3362C26.1315 13.6463 26.4004 13.8943 26.7397 14.0803C27.0789 14.2664 27.4471 14.3594 27.8442 14.3594C28.2579 14.3594 28.6343 14.2664 28.9736 14.0803C29.3128 13.8943 29.5775 13.6463 29.7678 13.3362C29.9664 13.0184 30.0657 12.6657 30.0657 12.2781V5.81351H33.64L33.6524 17.4405H30.0781L30.0657 16.615C29.652 16.9716 29.1721 17.2468 28.6261 17.4405C28.0883 17.6421 27.5174 17.7428 26.9134 17.7428C26.0198 17.7428 25.2049 17.5413 24.4685 17.1382C23.7321 16.7274 23.1447 16.1809 22.7062 15.4988C22.276 14.809 22.0608 14.0416 22.0608 13.1967Z" fill="white"/>
<path d="M35.6474 17.4405L35.635 5.81351H39.2092V6.61578C39.6312 6.25922 40.1111 5.98404 40.6489 5.79026C41.1949 5.58873 41.7699 5.48796 42.3739 5.48796C42.829 5.48796 43.284 5.54997 43.7391 5.67399L42.3367 9.05746C42.0471 8.93343 41.7451 8.87142 41.4307 8.87142C41.0253 8.87142 40.653 8.96444 40.3138 9.15047C39.9745 9.3365 39.7056 9.58842 39.5071 9.90623C39.3085 10.2163 39.2092 10.5651 39.2092 10.9527V17.4405H35.6474Z" fill="white"/>
<path d="M44.6162 17.4405V0H48.1904V17.4405H44.6162Z" fill="white"/>
</svg>
