<svg preserveAspectRatio="none" width="100%" height="100%" overflow="visible" style="display: block;" viewBox="0 0 25 25" fill="none" xmlns="http://www.w3.org/2000/svg">
<g id="Vector">
<path d="M11.5153 1.17761C11.0865 1.35523 10.7021 1.73963 9.93331 2.50838C9.16474 3.27695 8.78017 3.66151 8.60258 4.09026C8.36576 4.66199 8.36576 5.30445 8.60258 5.87618C8.7802 6.30498 9.16458 6.68936 9.93334 7.45813C10.7017 8.22646 11.0865 8.61133 11.5152 8.7889C12.087 9.02572 12.7294 9.02571 13.3011 8.78889C13.7299 8.61128 14.1143 8.2269 14.8831 7.45813C15.6519 6.68937 16.0351 6.30498 16.2127 5.87618C16.4495 5.30445 16.4495 4.66199 16.2127 4.09026C16.0351 3.66146 15.6519 3.27714 14.8831 2.50838C14.1143 1.73962 13.7299 1.35523 13.3011 1.17761C12.7294 0.940795 12.087 0.940795 11.5153 1.17761Z" stroke="var(--stroke-0, #878787)" stroke-width="2" stroke-linecap="round" stroke-linejoin="round"/>
<path d="M4.09029 8.60201C3.66149 8.77963 3.2771 9.16401 2.50834 9.93277C1.7398 10.7013 1.3552 11.0859 1.17761 11.5147C0.940795 12.0864 0.940795 12.7288 1.17761 13.3006C1.35523 13.7294 1.73962 14.1138 2.50838 14.8825C3.2767 15.6508 3.66158 16.0357 4.09026 16.2133C4.66199 16.4501 5.30445 16.4501 5.87618 16.2133C6.30498 16.0357 6.68936 15.6513 7.45813 14.8825C8.22689 14.1138 8.61014 13.7294 8.78776 13.3006C9.02458 12.7288 9.02458 12.0864 8.78776 11.5147C8.61014 11.0859 8.22689 10.7015 7.45813 9.93277C6.68936 9.16401 6.30498 8.77963 5.87618 8.60201C5.30445 8.36519 4.66202 8.36519 4.09029 8.60201Z" stroke="var(--stroke-0, #878787)" stroke-width="2" stroke-linecap="round" stroke-linejoin="round"/>
<path d="M17.3583 9.93277C16.5897 10.7013 16.2051 11.0859 16.0275 11.5147C15.7907 12.0864 15.7907 12.7288 16.0275 13.3006C16.2052 13.7294 16.5895 14.1138 17.3583 14.8825C18.1266 15.6508 18.5115 16.0357 18.9402 16.2133C19.5119 16.4501 20.1544 16.4501 20.7261 16.2133C21.1549 16.0357 21.5393 15.6513 22.3081 14.8825C23.0768 14.1138 23.4601 13.7294 23.6377 13.3006C23.8745 12.7288 23.8745 12.0864 23.6377 11.5147C23.4601 11.0859 23.0768 10.7015 22.3081 9.93277C21.5393 9.16401 21.1549 8.77963 20.7261 8.60201C20.1544 8.36519 19.512 8.36519 18.9402 8.60201C18.5114 8.77962 18.127 9.16402 17.3583 9.93277Z" stroke="var(--stroke-0, #878787)" stroke-width="2" stroke-linecap="round" stroke-linejoin="round"/>
<path d="M11.5153 16.027C11.0865 16.2046 10.7021 16.589 9.93331 17.3577C9.16476 18.1263 8.78017 18.5109 8.60258 18.9396C8.36576 19.5114 8.36576 20.1538 8.60258 20.7255C8.7802 21.1543 9.16458 21.5387 9.93334 22.3075C10.7017 23.0758 11.0865 23.4607 11.5152 23.6383C12.087 23.8751 12.7294 23.8751 13.3011 23.6383C13.7299 23.4606 14.1143 23.0763 14.8831 22.3075C15.6519 21.5387 16.0351 21.1543 16.2127 20.7255C16.4495 20.1538 16.4495 19.5114 16.2127 18.9396C16.0351 18.5108 15.6519 18.1265 14.8831 17.3577C14.1143 16.589 13.7299 16.2046 13.3011 16.027C12.7294 15.7902 12.087 15.7902 11.5153 16.027Z" stroke="var(--stroke-0, #878787)" stroke-width="2" stroke-linecap="round" stroke-linejoin="round"/>
</g>
</svg>
