<svg width="14" height="14" viewBox="0 0 14 14" fill="none" xmlns="http://www.w3.org/2000/svg">
<path fill-rule="evenodd" clip-rule="evenodd" d="M6.84074 12.783C6.90532 12.8167 6.97759 12.8339 7.04981 12.8334C7.12203 12.8328 7.19366 12.815 7.25888 12.7807L9.34015 11.6681C9.93031 11.3535 10.3925 11.0017 10.7531 10.5921C11.5371 9.69981 11.9652 8.56091 11.9576 7.38654L11.9329 3.51284C11.9306 3.06667 11.6375 2.66854 11.2041 2.52382L7.33226 1.22476C7.09916 1.14583 6.84366 1.14754 6.61464 1.22877L2.75749 2.57416C2.32644 2.7246 2.03868 3.12559 2.04103 3.57234L2.0657 7.44318C2.07333 8.61924 2.51613 9.75301 3.31305 10.6362C3.67715 11.0401 4.14344 11.3867 4.7401 11.6961L6.84074 12.783ZM6.28978 8.23021C6.3767 8.31375 6.48946 8.35493 6.60222 8.35376C6.71498 8.35324 6.82709 8.31089 6.91284 8.22625L9.18732 5.98391C9.35824 5.81517 9.35649 5.54403 9.18382 5.37757C9.01057 5.21111 8.73162 5.21226 8.5607 5.381L6.59574 7.31788L5.79118 6.5445C5.61794 6.37801 5.33958 6.37976 5.16809 6.54852C4.9972 6.71722 4.99896 6.98836 5.17221 7.15484L6.28978 8.23021Z" fill="#85CC16"/>
</svg>
